<svg width="137" height="181" viewBox="0 0 137 181" fill="none" xmlns="http://www.w3.org/2000/svg">
<g opacity="0.8" clip-path="url(#clip0_2234_9590)">
<path d="M40.8845 175.018C42.3926 175.012 43.5273 176.108 43.5323 177.574C43.5372 179.04 42.4098 180.143 40.9018 180.148C39.3937 180.153 38.259 179.058 38.2541 177.592C38.2491 176.126 39.5021 175.022 40.8845 175.018Z" fill="#FFCF2D"/>
<path d="M40.8113 153.15C42.3193 153.145 43.4541 154.241 43.459 155.707C43.4639 157.173 42.3366 158.276 40.8285 158.281C39.3205 158.286 38.1858 157.191 38.1808 155.725C38.1763 154.381 39.4289 153.155 40.8113 153.15Z" fill="#FFCF2D"/>
<path d="M40.738 131.406C42.2461 131.401 43.3808 132.497 43.3858 133.963C43.3907 135.429 42.2634 136.532 40.7553 136.537C39.2472 136.542 38.1125 135.446 38.1076 133.98C38.1027 132.515 39.3557 131.411 40.738 131.406Z" fill="#FFCF2D"/>
<path d="M40.6643 109.539C42.1724 109.534 43.3071 110.63 43.312 112.096C43.317 113.561 42.1896 114.665 40.6816 114.67C39.1735 114.675 38.0388 113.579 38.0339 112.113C38.0289 110.647 39.2819 109.544 40.6643 109.539Z" fill="#FFCF2D"/>
<path d="M40.5911 87.6718C42.0991 87.6668 43.2339 88.7624 43.2388 90.2284C43.2437 91.6943 42.1164 92.7976 40.6083 92.8026C39.1003 92.8077 37.9655 91.7121 37.9606 90.2461C37.9561 88.9023 39.2087 87.6765 40.5911 87.6718Z" fill="#FFCF2D"/>
<path d="M40.5173 65.8046C42.0254 65.7996 43.1601 66.8952 43.1651 68.3612C43.17 69.8271 42.0427 70.9304 40.5346 70.9355C39.0265 70.9405 37.8918 69.8449 37.8869 68.3789C37.8819 66.913 39.135 65.8093 40.5173 65.8046Z" fill="#FFCF2D"/>
<path d="M40.4441 44.0605C41.9522 44.0554 43.0869 45.1511 43.0918 46.617C43.0968 48.083 41.9694 49.1862 40.4614 49.1913C38.9533 49.1964 37.8186 48.1007 37.8136 46.6348C37.8087 45.1688 39.0617 44.0651 40.4441 44.0605Z" fill="#FFCF2D"/>
<path d="M40.3709 22.1933C41.8789 22.1882 43.0136 23.2839 43.0186 24.7499C43.0235 26.2158 41.8962 27.3191 40.3881 27.3241C38.8801 27.3292 37.7453 26.2336 37.7404 24.7676C37.7355 23.3017 38.9885 22.198 40.3709 22.1933Z" fill="#FFCF2D"/>
<path d="M40.2971 0.326145C41.8052 0.321072 42.9399 1.41671 42.9448 2.88266C42.9498 4.3486 41.8224 5.45187 40.3144 5.45694C38.8063 5.46202 37.6716 4.36636 37.6667 2.90041C37.6621 1.55663 38.9147 0.330795 40.2971 0.326145Z" fill="#FFCF2D"/>
<path d="M59.6096 174.955C61.1177 174.95 62.2524 176.046 62.2574 177.512C62.2623 178.978 61.1349 180.081 59.6269 180.086C58.1188 180.091 56.9841 178.995 56.9792 177.529C56.9742 176.063 58.1016 174.96 59.6096 174.955Z" fill="#FFCF2D"/>
<path d="M59.5359 153.088C61.044 153.083 62.1787 154.178 62.1836 155.644C62.1886 157.11 61.0612 158.214 59.5532 158.219C58.0451 158.224 56.9104 157.128 56.9054 155.662C56.9009 154.318 58.0278 153.093 59.5359 153.088Z" fill="#FFCF2D"/>
<path d="M59.4627 131.343C60.9707 131.338 62.1054 132.433 62.1104 133.899C62.1153 135.365 60.988 136.468 59.4799 136.474C57.9719 136.479 56.8371 135.383 56.8322 133.917C56.8273 132.451 57.9546 131.348 59.4627 131.343Z" fill="#FFCF2D"/>
<path d="M59.3894 109.476C60.8975 109.47 62.0322 110.566 62.0371 112.032C62.0421 113.498 60.9147 114.601 59.4067 114.606C57.8986 114.611 56.7639 113.516 56.7589 112.05C56.754 110.584 57.8814 109.481 59.3894 109.476Z" fill="#FFCF2D"/>
<path d="M59.3157 87.6083C60.8237 87.6033 61.9585 88.6989 61.9634 90.1649C61.9683 91.6308 60.841 92.7341 59.3329 92.7392C57.8249 92.7442 56.6901 91.6486 56.6852 90.1826C56.6807 88.8388 57.8076 87.6134 59.3157 87.6083Z" fill="#FFCF2D"/>
<path d="M59.242 65.7421C60.75 65.7371 61.8847 66.8327 61.8897 68.2987C61.8946 69.7646 60.7673 70.8679 59.2592 70.873C57.7512 70.878 56.6164 69.7824 56.6115 68.3164C56.6066 66.8505 57.7339 65.7472 59.242 65.7421Z" fill="#FFCF2D"/>
<path d="M59.1692 43.997C60.6773 43.992 61.812 45.0876 61.8169 46.5536C61.8219 48.0195 60.6945 49.1228 59.1865 49.1278C57.6784 49.1329 56.5437 48.0373 56.5387 46.5713C56.5338 45.1054 57.6611 44.0021 59.1692 43.997Z" fill="#FFCF2D"/>
<path d="M59.0955 22.1298C60.6035 22.1248 61.7383 23.2204 61.7432 24.6864C61.7481 26.1523 60.6208 27.2556 59.1127 27.2607C57.6047 27.2657 56.4699 26.1701 56.465 24.7041C56.4601 23.2382 57.5874 22.1349 59.0955 22.1298Z" fill="#FFCF2D"/>
<path d="M59.0217 0.262653C60.5298 0.257581 61.6645 1.35323 61.6695 2.81917C61.6744 4.28512 60.5471 5.38839 59.039 5.39347C57.5309 5.39854 56.3962 4.30288 56.3913 2.83693C56.3868 1.49314 57.5137 0.267726 59.0217 0.262653Z" fill="#FFCF2D"/>
<path d="M3.56031 175.144C5.06837 175.138 6.2031 176.234 6.20803 177.7C6.21297 179.166 5.08562 180.269 3.57757 180.274C2.06952 180.279 0.934778 179.184 0.929847 177.718C0.924917 176.252 2.05226 175.149 3.56031 175.144Z" fill="#FFCF2D"/>
<path d="M3.48658 153.276C4.99464 153.271 6.12937 154.367 6.1343 155.833C6.13924 157.299 5.01189 158.402 3.50384 158.407C1.99579 158.412 0.861048 157.317 0.856117 155.851C0.851597 154.507 1.97853 153.281 3.48658 153.276Z" fill="#FFCF2D"/>
<path d="M3.41383 131.532C4.92188 131.527 6.05662 132.623 6.06155 134.089C6.06648 135.555 4.93914 136.658 3.43109 136.663C1.92303 136.668 0.787883 135.45 0.783363 134.106C0.778432 132.641 1.90577 131.537 3.41383 131.532Z" fill="#FFCF2D"/>
<path d="M3.3401 109.665C4.84815 109.66 5.98289 110.756 5.98782 112.222C5.99275 113.687 4.86541 114.791 3.35736 114.796C1.8493 114.801 0.714153 113.583 0.709633 112.239C0.705113 110.895 1.83204 109.67 3.3401 109.665Z" fill="#FFCF2D"/>
<path d="M3.26637 87.7978C4.77442 87.7927 5.90916 88.8884 5.91409 90.3543C5.91902 91.8203 4.79168 92.9236 3.28362 92.9286C1.77557 92.9337 0.640833 91.838 0.635902 90.3721C0.631382 89.0283 1.75831 87.8029 3.26637 87.7978Z" fill="#FFCF2D"/>
<path d="M3.19312 65.9306C4.70118 65.9255 5.83592 67.0212 5.84085 68.4871C5.84578 69.9531 4.71844 71.0564 3.21038 71.0614C1.70233 71.0665 0.567591 69.9709 0.56266 68.5049C0.557729 67.039 1.68507 65.9357 3.19312 65.9306Z" fill="#FFCF2D"/>
<path d="M3.11988 44.1855C4.62794 44.1804 5.76267 45.2761 5.7676 46.742C5.77254 48.208 4.64519 49.3112 3.13714 49.3163C1.62909 49.3214 0.494349 48.2257 0.489418 46.7598C0.484487 45.2938 1.61183 44.1906 3.11988 44.1855Z" fill="#FFCF2D"/>
<path d="M3.04615 22.3183C4.55421 22.3132 5.68894 23.4089 5.69387 24.8748C5.69881 26.3408 4.57146 27.4441 3.06341 27.4491C1.55536 27.4542 0.420618 26.3585 0.415687 24.8926C0.410756 23.4266 1.5381 22.3234 3.04615 22.3183Z" fill="#FFCF2D"/>
<path d="M2.97291 0.451145C4.48096 0.446072 5.6157 1.54171 5.62063 3.00766C5.62556 4.4736 4.49822 5.57687 2.99017 5.58194C1.48211 5.58702 0.347376 4.49136 0.342445 3.02541C0.337925 1.68163 1.46486 0.456217 2.97291 0.451145Z" fill="#FFCF2D"/>
<path d="M22.2854 175.08C23.7935 175.075 24.9282 176.171 24.9331 177.637C24.9381 179.103 23.6851 180.206 22.3027 180.211C20.7946 180.216 19.6599 179.12 19.6549 177.654C19.65 176.188 20.7774 175.085 22.2854 175.08Z" fill="#FFCF2D"/>
<path d="M22.2117 153.214C23.7197 153.209 24.8545 154.304 24.8594 155.77C24.8643 157.236 23.737 158.34 22.2289 158.345C20.7209 158.35 19.5861 157.254 19.5812 155.788C19.5767 154.444 20.7036 153.219 22.2117 153.214Z" fill="#FFCF2D"/>
<path d="M22.1389 131.469C23.647 131.464 24.7817 132.559 24.7866 134.025C24.7916 135.491 23.6642 136.594 22.1562 136.6C20.6481 136.605 19.5134 135.509 19.5085 134.043C19.5035 132.577 20.6309 131.474 22.1389 131.469Z" fill="#FFCF2D"/>
<path d="M22.0652 109.602C23.5732 109.596 24.708 110.692 24.7129 112.158C24.7178 113.624 23.5905 114.727 22.0825 114.732C20.5744 114.737 19.4397 113.642 19.4347 112.176C19.4298 110.71 20.5571 109.607 22.0652 109.602Z" fill="#FFCF2D"/>
<path d="M21.9915 87.7343C23.4995 87.7293 24.6343 88.8249 24.6392 90.2909C24.6441 91.7568 23.5168 92.8601 22.0087 92.8651C20.5007 92.8702 19.3659 91.7746 19.361 90.3086C19.3565 88.9648 20.4834 87.7394 21.9915 87.7343Z" fill="#FFCF2D"/>
<path d="M21.9182 65.8671C23.4263 65.8621 24.561 66.9577 24.5659 68.4237C24.5709 69.8896 23.4435 70.9929 21.9355 70.998C20.4274 71.003 19.2927 69.9074 19.2878 68.4414C19.2828 66.9755 20.4102 65.8722 21.9182 65.8671Z" fill="#FFCF2D"/>
<path d="M21.845 44.123C23.353 44.1179 24.4878 45.2136 24.4927 46.6795C24.4976 48.1455 23.3703 49.2487 21.8622 49.2538C20.3542 49.2589 19.2194 48.1632 19.2145 46.6973C19.2096 45.2313 20.3369 44.1281 21.845 44.123Z" fill="#FFCF2D"/>
<path d="M21.7712 22.2558C23.2793 22.2507 24.414 23.3464 24.419 24.8123C24.4239 26.2783 23.2966 27.3816 21.7885 27.3866C20.2805 27.3917 19.1457 26.296 19.1408 24.8301C19.1359 23.3641 20.2632 22.2609 21.7712 22.2558Z" fill="#FFCF2D"/>
<path d="M21.698 0.38863C23.2061 0.383557 24.3408 1.4792 24.3457 2.94515C24.3507 4.4111 23.2233 5.51437 21.7153 5.51944C20.2072 5.52452 19.0725 4.42885 19.0675 2.9629C19.063 1.61912 20.19 0.393702 21.698 0.38863Z" fill="#FFCF2D"/>
<path d="M78.2092 174.893C79.7173 174.887 80.852 175.983 80.857 177.449C80.8619 178.915 79.7345 180.018 78.2265 180.023C76.7184 180.028 75.5837 178.933 75.5788 177.467C75.5738 176.001 76.8269 174.897 78.2092 174.893Z" fill="#FFCF2D"/>
<path d="M78.1355 153.025C79.6436 153.02 80.7783 154.116 80.7832 155.582C80.7882 157.048 79.6608 158.151 78.1528 158.156C76.6447 158.161 75.51 157.066 75.505 155.6C75.5005 154.256 76.7531 153.03 78.1355 153.025Z" fill="#FFCF2D"/>
<path d="M78.0623 131.28C79.5703 131.275 80.7051 132.371 80.71 133.837C80.7149 135.303 79.5876 136.406 78.0795 136.411C76.5715 136.416 75.4367 135.32 75.4318 133.855C75.4269 132.389 76.6799 131.285 78.0623 131.28Z" fill="#FFCF2D"/>
<path d="M77.989 109.413C79.4971 109.408 80.6318 110.504 80.6367 111.97C80.6417 113.436 79.5143 114.539 78.0063 114.544C76.4982 114.549 75.3635 113.453 75.3586 111.987C75.3536 110.521 76.6066 109.418 77.989 109.413Z" fill="#FFCF2D"/>
<path d="M77.9153 87.5458C79.4233 87.5408 80.5581 88.6364 80.563 90.1024C80.5679 91.5683 79.4406 92.6716 77.9325 92.6767C76.4245 92.6817 75.2898 91.5861 75.2848 90.1201C75.2803 88.7763 76.5329 87.5505 77.9153 87.5458Z" fill="#FFCF2D"/>
<path d="M77.8416 65.6787C79.3496 65.6736 80.4844 66.7693 80.4893 68.2352C80.4942 69.7011 79.3669 70.8044 77.8588 70.8095C76.3508 70.8146 75.216 69.7189 75.2111 68.253C75.2062 66.787 76.4592 65.6833 77.8416 65.6787Z" fill="#FFCF2D"/>
<path d="M77.7688 43.9345C79.2769 43.9294 80.4116 45.0251 80.4165 46.491C80.4215 47.957 79.2941 49.0603 77.7861 49.0653C76.278 49.0704 75.1433 47.9747 75.1383 46.5088C75.1334 45.0429 76.3864 43.9392 77.7688 43.9345Z" fill="#FFCF2D"/>
<path d="M77.6951 22.0673C79.2031 22.0623 80.3379 23.1579 80.3428 24.6239C80.3477 26.0898 79.2204 27.1931 77.7123 27.1982C76.2043 27.2032 75.0695 26.1076 75.0646 24.6416C75.0597 23.1757 76.3127 22.072 77.6951 22.0673Z" fill="#FFCF2D"/>
<path d="M77.6213 0.200153C79.1294 0.195081 80.2641 1.29073 80.2691 2.75667C80.274 4.22262 79.1467 5.32589 77.6386 5.33097C76.1305 5.33604 74.9958 4.24038 74.9909 2.77443C74.9864 1.43064 76.239 0.204803 77.6213 0.200153Z" fill="#FFCF2D"/>
<path d="M96.9338 174.829C98.4419 174.824 99.5766 175.92 99.5816 177.386C99.5865 178.852 98.4592 179.955 96.9511 179.96C95.443 179.965 94.3083 178.869 94.3034 177.403C94.2985 175.937 95.4258 174.834 96.9338 174.829Z" fill="#FFCF2D"/>
<path d="M96.8601 152.962C98.3682 152.957 99.5029 154.052 99.5078 155.518C99.5128 156.984 98.3854 158.088 96.8774 158.093C95.3693 158.098 94.2346 157.002 94.2297 155.536C94.2251 154.192 95.3521 152.967 96.8601 152.962Z" fill="#FFCF2D"/>
<path d="M96.7874 131.218C98.2954 131.213 99.4301 132.308 99.4351 133.774C99.44 135.24 98.3127 136.343 96.8046 136.349C95.2966 136.354 94.1618 135.258 94.1569 133.792C94.152 132.326 95.2793 131.223 96.7874 131.218Z" fill="#FFCF2D"/>
<path d="M99.3613 111.907C99.3566 110.49 98.1712 109.346 96.7136 109.351C95.2561 109.355 94.0784 110.508 94.0832 111.925C94.0879 113.342 95.2734 114.486 96.7309 114.481C98.1884 114.476 99.3661 113.324 99.3613 111.907Z" fill="#FFCF2D"/>
<path d="M96.6399 87.4833C98.1479 87.4783 99.2827 88.5739 99.2876 90.0399C99.2925 91.5058 98.1652 92.6091 96.6572 92.6142C95.1491 92.6192 94.0144 91.5236 94.0094 90.0576C94.0049 88.7138 95.1318 87.4884 96.6399 87.4833Z" fill="#FFCF2D"/>
<path d="M96.5667 65.6162C98.0747 65.6111 99.2094 66.7067 99.2144 68.1727C99.2193 69.6386 98.092 70.7419 96.5839 70.747C95.0759 70.7521 93.9411 69.6564 93.9362 68.1904C93.9313 66.7245 95.0586 65.6212 96.5667 65.6162Z" fill="#FFCF2D"/>
<path d="M96.4934 43.871C98.0015 43.866 99.1362 44.9616 99.1411 46.4276C99.1461 47.8935 98.0187 48.9968 96.5107 49.0019C95.0026 49.0069 93.8679 47.9113 93.863 46.4453C93.858 44.9794 94.9854 43.8761 96.4934 43.871Z" fill="#FFCF2D"/>
<path d="M99.0674 24.5614C99.0626 23.1445 97.8772 21.9999 96.4197 22.0048C94.9622 22.0097 93.7845 23.1623 93.7892 24.5791C93.794 25.996 94.9794 27.1406 96.4369 27.1357C97.8945 27.1308 99.0722 25.9782 99.0674 24.5614Z" fill="#FFCF2D"/>
<path d="M96.3464 0.136677C97.8545 0.131604 98.9892 1.22725 98.9942 2.6932C98.9991 4.15915 97.8717 5.26242 96.3637 5.26749C94.8556 5.27256 93.7209 4.1769 93.716 2.71095C93.7115 1.36717 94.8384 0.141749 96.3464 0.136677Z" fill="#FFCF2D"/>
<path d="M115.659 174.767C117.167 174.761 118.302 175.857 118.307 177.323C118.312 178.789 117.184 179.892 115.676 179.897C114.168 179.902 113.033 178.807 113.028 177.341C113.024 175.875 114.151 174.772 115.659 174.767Z" fill="#FFCF2D"/>
<path d="M115.586 152.899C117.094 152.894 118.229 153.99 118.233 155.456C118.238 156.922 117.111 158.025 115.603 158.03C114.095 158.035 112.96 156.94 112.955 155.474C112.951 154.13 114.078 152.904 115.586 152.899Z" fill="#FFCF2D"/>
<path d="M115.512 131.154C117.021 131.149 118.155 132.245 118.16 133.711C118.165 135.177 117.038 136.28 115.53 136.285C114.022 136.29 112.887 135.194 112.882 133.729C112.877 132.263 114.004 131.159 115.512 131.154Z" fill="#FFCF2D"/>
<path d="M115.439 109.287C116.947 109.282 118.082 110.378 118.086 111.844C118.091 113.31 116.964 114.413 115.456 114.418C113.948 114.423 112.813 113.327 112.808 111.861C112.803 110.395 113.931 109.292 115.439 109.287Z" fill="#FFCF2D"/>
<path d="M115.365 87.4199C116.873 87.4148 118.008 88.5105 118.013 89.9764C118.018 91.4424 116.89 92.5456 115.382 92.5507C113.874 92.5558 112.739 91.4601 112.735 89.9942C112.73 88.6504 113.857 87.4249 115.365 87.4199Z" fill="#FFCF2D"/>
<path d="M115.292 65.5527C116.8 65.5476 117.935 66.6433 117.939 68.1092C117.944 69.5752 116.817 70.6784 115.309 70.6835C113.801 70.6886 112.666 69.5929 112.661 68.127C112.656 66.661 113.784 65.5578 115.292 65.5527Z" fill="#FFCF2D"/>
<path d="M115.219 43.8086C116.727 43.8035 117.861 44.8991 117.866 46.3651C117.871 47.831 116.744 48.9343 115.236 48.9394C113.728 48.9444 112.593 47.8488 112.588 46.3828C112.583 44.9169 113.71 43.8136 115.219 43.8086Z" fill="#FFCF2D"/>
<path d="M115.145 21.9413C116.653 21.9363 117.788 23.0319 117.793 24.4979C117.797 25.9638 116.67 27.0671 115.162 27.0722C113.654 27.0773 112.519 25.9816 112.514 24.5156C112.509 23.0497 113.637 21.9464 115.145 21.9413Z" fill="#FFCF2D"/>
<path d="M115.072 0.0741766C116.58 0.069104 117.714 1.16475 117.719 2.6307C117.724 4.09664 116.597 5.19992 115.089 5.20499C113.581 5.21006 112.446 4.1144 112.441 2.64845C112.437 1.30467 113.563 0.0792491 115.072 0.0741766Z" fill="#FFCF2D"/>
<path d="M134.258 174.704C135.766 174.699 136.901 175.795 136.906 177.261C136.911 178.727 135.783 179.83 134.275 179.835C132.767 179.84 131.633 178.744 131.628 177.278C131.623 175.812 132.876 174.709 134.258 174.704Z" fill="#FFCF2D"/>
<path d="M134.185 152.837C135.693 152.832 136.828 153.927 136.833 155.393C136.837 156.859 135.71 157.963 134.202 157.968C132.694 157.973 131.559 156.877 131.554 155.411C131.55 154.067 132.802 152.842 134.185 152.837Z" fill="#FFCF2D"/>
<path d="M134.112 131.092C135.62 131.087 136.754 132.182 136.759 133.648C136.764 135.114 135.637 136.217 134.129 136.223C132.621 136.228 131.486 135.132 131.481 133.666C131.476 132.2 132.729 131.096 134.112 131.092Z" fill="#FFCF2D"/>
<path d="M134.038 109.225C135.546 109.219 136.681 110.315 136.686 111.781C136.69 113.247 135.563 114.35 134.055 114.355C132.547 114.36 131.412 113.265 131.407 111.799C131.402 110.333 132.655 109.229 134.038 109.225Z" fill="#FFCF2D"/>
<path d="M133.965 87.3574C135.473 87.3523 136.607 88.448 136.612 89.9139C136.617 91.3799 135.49 92.4831 133.982 92.4882C132.474 92.4933 131.339 91.3976 131.334 89.9317C131.33 88.5879 132.582 87.362 133.965 87.3574Z" fill="#FFCF2D"/>
<path d="M133.891 65.4902C135.399 65.4851 136.534 66.5808 136.539 68.0467C136.544 69.5127 135.416 70.6159 133.908 70.621C132.4 70.6261 131.265 69.5304 131.26 68.0645C131.255 66.5985 132.508 65.4948 133.891 65.4902Z" fill="#FFCF2D"/>
<path d="M133.818 43.746C135.326 43.741 136.46 44.8366 136.465 46.3026C136.47 47.7685 135.343 48.8718 133.835 48.8769C132.327 48.8819 131.192 47.7863 131.187 46.3203C131.182 44.8544 132.435 43.7507 133.818 43.746Z" fill="#FFCF2D"/>
<path d="M133.744 21.8788C135.252 21.8738 136.387 22.9694 136.392 24.4354C136.397 25.9013 135.27 27.0046 133.762 27.0097C132.254 27.0148 131.119 25.9191 131.114 24.4531C131.109 22.9872 132.362 21.8835 133.744 21.8788Z" fill="#FFCF2D"/>
<path d="M133.671 0.0116766C135.179 0.00660406 136.313 1.10225 136.318 2.5682C136.323 4.03415 135.196 5.13742 133.688 5.14249C132.18 5.14756 131.045 4.0519 131.04 2.58595C131.036 1.24217 132.288 0.0163264 133.671 0.0116766Z" fill="#FFCF2D"/>
</g>
<defs>
<clipPath id="clip0_2234_9590">
<rect width="179.824" height="135.977" fill="white" transform="translate(0.938477 180.283) rotate(-90.1927)"/>
</clipPath>
</defs>
</svg>
